<svg height='300px' width='300px'  fill="#FFFFFF" xmlns="http://www.w3.org/2000/svg" xmlns:xlink="http://www.w3.org/1999/xlink" version="1.1" x="0px" y="0px" viewBox="0 0 80 80" style="enable-background:new 0 0 80 80;" xml:space="preserve"><g><g><path d="M71.71,63.42L55.84,47.55c2.66-4.2,4.09-9.07,4.09-14.17c0-7.09-2.76-13.76-7.78-18.78c-5.01-5.02-11.68-7.78-18.78-7.78    c-7.09,0-13.76,2.76-18.78,7.78c-10.36,10.36-10.36,27.21,0,37.56c5.02,5.02,11.69,7.78,18.78,7.78c5.1,0,9.97-1.43,14.17-4.09    l15.87,15.87c0.97,0.97,2.25,1.46,3.53,1.46c1.28,0,2.56-0.49,3.54-1.46l1.23-1.23C73.66,68.54,73.66,65.36,71.71,63.42z     M46.44,46.45c-7.21,7.2-18.93,7.2-26.13,0c-7.21-7.21-7.21-18.93,0-26.13c3.6-3.6,8.33-5.4,13.06-5.4s9.46,1.8,13.07,5.4    C53.64,27.52,53.64,39.24,46.44,46.45z M66.81,68.82c-1.1,0-2-0.9-2-2c0-1.1,0.9-2,2-2s2,0.9,2,2    C68.81,67.92,67.91,68.82,66.81,68.82z"></path></g><g><path d="M31.81,18.82c-7.17,0-13,5.83-13,13c0,0.55,0.45,1,1,1s1-0.45,1-1c0-6.07,4.93-11,11-11c0.55,0,1-0.45,1-1    S32.37,18.82,31.81,18.82z"></path></g></g></svg>